<svg fill="#fff" id="Capa_1" enable-background="new 0 0 512 512" height="512" viewBox="0 0 512 512" width="512" xmlns="http://www.w3.org/2000/svg"><g><path d="m509.057 396.854-141.157-140.839 140.077-140.289c3.908-3.913 3.905-10.253-.006-14.164l-97.636-97.636c-1.879-1.879-4.428-2.935-7.086-2.934-2.658 0-5.206 1.057-7.085 2.936l-138.567 138.641-95.807-92.188c-1.073-1.032-2.423-1.845-3.841-2.304l-144.825-47.19c-3.586-1.171-7.523-.225-10.189 2.441s-3.61 6.604-2.441 10.189l47.19 144.825c.495 1.52 1.376 2.952 2.525 4.065l93.912 93.7-140.602 140.677c-3.911 3.913-3.91 10.256.001 14.168l97.635 97.635c1.956 1.956 4.521 2.934 7.085 2.934 2.56 0 5.121-.976 7.077-2.927l37.982-37.895c3.917-3.909 3.925-10.252.016-14.17s-10.253-3.925-14.17-.016l-30.897 30.827-83.476-83.476 34.542-34.56 29.692 29.692c1.956 1.956 4.521 2.934 7.085 2.934s5.129-.978 7.085-2.935c3.913-3.913 3.912-10.257 0-14.17l-29.696-29.695 19.022-19.033 17.267 17.267c1.956 1.956 4.521 2.934 7.085 2.934s5.129-.978 7.085-2.935c3.913-3.913 3.912-10.257 0-14.17l-17.271-17.27 19.022-19.032 29.71 29.71c1.956 1.956 4.521 2.934 7.085 2.934s5.129-.978 7.085-2.935c3.913-3.913 3.912-10.257 0-14.17l-29.714-29.713 18.448-18.457 16.463 16.426c1.955 1.952 4.516 2.927 7.077 2.927 2.568 0 5.136-.981 7.093-2.943 3.909-3.917 3.901-10.261-.016-14.17l-16.451-16.414 19.181-19.191 30.244 29.41c1.947 1.893 4.467 2.836 6.984 2.836 2.612 0 5.22-1.015 7.184-3.034 3.858-3.967 3.769-10.311-.198-14.169l-30.047-29.218 19.07-19.08 17.821 17.083c1.942 1.862 4.438 2.787 6.932 2.787 2.635 0 5.267-1.034 7.234-3.086 3.83-3.995 3.695-10.337-.299-14.166l-17.519-16.794 18.813-18.823 30.457 29.307c3.987 3.836 10.33 3.715 14.167-.273 3.837-3.987 3.715-10.33-.273-14.167l-30.183-29.043 15.716-15.725 19.089 19.089c1.957 1.957 4.521 2.935 7.085 2.935s5.129-.978 7.085-2.934c3.913-3.913 3.913-10.257 0-14.17l-19.093-19.094 101.332-101.383 83.469 83.469-284.122 284.553c-3.91 3.915-3.905 10.26.011 14.17 3.917 3.91 10.261 3.905 14.17-.011l39.4-39.459 141.094 140.776c1.955 1.951 4.516 2.927 7.077 2.927 2.565 0 5.129-.978 7.085-2.935l97.631-97.641c1.881-1.881 2.936-4.431 2.934-7.09-.002-2.66-1.061-5.21-2.944-7.088zm-363.331-287.376-36.138-12.733c-3.618-1.276-7.644-.373-10.372 2.323-2.728 2.695-3.678 6.711-2.448 10.343l12.453 36.748-44.694-.807-16.65-51.096c.191-.164.382-.328.563-.509l45.463-45.463 51.046 16.633zm-73.198-68.159-31.603 31.602-15.274-46.876zm85.758 200.615-76.398-76.225 37.249.672 58.147 56.544zm33.166-33.184-59.456-57.817-9.637-28.441 28.265 9.959 59.796 57.32zm33.137-33.155-58.649-56.221-.659-37.825 78.148 75.196zm212.191 279.388-134.045-133.704 18.53-18.558 134.058 133.719zm-32.438 32.443-134.004-133.702 18.237-18.265 134.036 133.695zm65.149-65.157-134.067-133.729 18.317-18.345 134.062 133.76z"/><path d="m385.917 89.094c-5.678 5.677-8.804 13.226-8.804 21.255s3.127 15.577 8.804 21.255c5.678 5.677 13.226 8.804 21.255 8.804s15.578-3.127 21.255-8.804c5.677-5.678 8.804-13.226 8.804-21.255s-3.127-15.578-8.804-21.254c-5.677-5.678-13.226-8.804-21.255-8.804-8.03 0-15.578 3.126-21.255 8.803zm28.339 14.171c1.892 1.892 2.934 4.408 2.934 7.085 0 2.676-1.042 5.192-2.935 7.085-1.892 1.892-4.408 2.934-7.085 2.934-2.676 0-5.192-1.042-7.085-2.935-1.893-1.892-2.935-4.409-2.935-7.085 0-2.677 1.042-5.192 2.935-7.085 1.892-1.893 4.409-2.935 7.085-2.935 2.678.001 5.194 1.043 7.086 2.936z"/><circle cx="178.04" cy="431.931" r="10"/></g></svg>
