<svg fill="#fff" id="Capa_1" enable-background="new 0 0 510 510" height="512" viewBox="0 0 510 510" width="512" xmlns="http://www.w3.org/2000/svg"><g><path d="m480 272h-146c-15.805 0-28.785 12.288-29.911 27.811l-34.089-8.522v-199.758c18.58-6.276 32-23.86 32-44.531 0-25.916-21.084-47-47-47s-47 21.084-47 47c0 20.671 13.42 38.255 32 44.531v192.258l-34-8.5v-5.289c0-16.542-13.458-30-30-30h-146c-16.542 0-30 13.458-30 30v34c0 16.542 13.458 30 30 30h146c15.805 0 28.785-12.288 29.911-27.811l34.089 8.522v101.289h-98c-16.542 0-30 13.458-30 30v34c0 16.542 13.458 30 30 30h226c16.542 0 30-13.458 30-30v-34c0-16.542-13.458-30-30-30h-98v-93.789l34 8.5v5.289c0 16.542 13.458 30 30 30h146c16.542 0 30-13.458 30-30v-34c0-16.542-13.458-30-30-30zm-304 32h-146v-34h146c.02 34.829.1 34 0 34zm192 142c.019 34.735.1 34 0 34h-226v-34zm-113-382c-9.374 0-17-7.626-17-17s7.626-17 17-17 17 7.626 17 17-7.626 17-17 17zm225 272h-146v-34h146c.019 34.735.1 34 0 34z"/><path d="m358 238h98c16.542 0 30-13.458 30-30 0-88.041.304-82.434-.74-85.64-1.377-4.244 1.105-.653-55.838-64.713-11.886-13.374-32.875-13.466-44.844-.001-57.318 64.483-53.961 60.247-55.318 63.347-1.788 4.085-1.26-.7-1.26 87.007 0 16.542 13.458 30 30 30zm49-160.422 30.597 34.422h-61.194zm-49 64.422h98.004l.015 65.999c-.101.017-5.861.001-98.019.001z"/><path d="m51.91 174.39c14.49 7.975 23.793 10.286 35.06 11.221v5.389c0 9.497 8.778 15.971 16.03 14.96.01.01.01.01.02 0 5.708-.398 9.005-3.86 9.05-3.86 5.69-4.935 4.9-11.443 4.9-17.729 51.309-11.47 63.472-75.997 10.97-95.25-3.46-1.272-42.928-12.27-47.95-20.02-1.219-1.219-1.994-6.023 1-11.15 6.411-10.69 26.372-11.21 37.92-6.98 7.592 2.642 8.629 5.746 13.99 6.81 15.748 2.766 25.127-17.82 10.4-27.83-.101-.052-10.499-7.646-26.33-10.33 0-4.537.187-6.069-.62-8.9-4.66-15.289-26.109-13.548-29.06 1.19-.427 2.132-.32 2.786-.32 8.59-37.357 8.807-47.537 47.684-29.14 69 9.338 10.946 30.964 18.585 45.17 23.21 11.975 3.868 21.188 5.411 26.31 12.5 7.712 10.698-2.584 30.026-26.31 30.771-16.015.46-23.57-.6-36.57-7.851-7.25-4-16.38-1.38-20.39 5.87s-1.38 16.379 5.87 20.389z"/></g></svg>
